<?xml version="1.0" encoding="utf-8"?>
<!-- Generator: Adobe Illustrator 16.0.0, SVG Export Plug-In . SVG Version: 6.00 Build 0)  -->
<!DOCTYPE svg PUBLIC "-//W3C//DTD SVG 1.1//EN" "http://www.w3.org/Graphics/SVG/1.1/DTD/svg11.dtd">
<svg version="1.1" id="Layer_1" xmlns="http://www.w3.org/2000/svg" xmlns:xlink="http://www.w3.org/1999/xlink" x="0px" y="0px"
	 width="100px" height="100px" viewBox="-27.5 -27.5 100 100" enable-background="new -27.5 -27.5 100 100" xml:space="preserve">
<g>
	<path stroke="#000000" stroke-width="1.5" stroke-linecap="round" stroke-linejoin="round" d="M22.466-8.077
		C46.697-5.769,60.543,10.385,59.39,58.846H6.313c0-20.769,23.077-15,18.462-48.461"/>
	<path stroke="#000000" stroke-width="1.5" stroke-linecap="round" stroke-linejoin="round" d="M27.082,10.385
		c0.876,6.716-12.808,17.008-18.462,20.77c-6.923,4.615-6.507,10.015-11.538,9.23c-2.405-2.168,3.254-7.016,0-6.923
		c-2.308,0,0.438,2.839-2.308,4.615c-2.308,0-9.237,2.308-9.23-9.231c0-4.615,13.846-27.692,13.846-27.692S3.751-3.23,4.005-6.923
		c-1.685-2.294-1.154-4.616-1.154-6.923c2.308-2.308,6.923,5.769,6.923,5.769h4.616c0,0,1.799-4.597,5.769-6.923
		c2.308,0,2.308,6.923,2.308,6.923"/>
	<path fill="#FFFFFF" stroke="#FFFFFF" stroke-width="1.5" stroke-linecap="round" stroke-linejoin="round" d="M-6.38,27.692
		c0,0.638-0.516,1.153-1.154,1.153s-1.154-0.516-1.154-1.153s0.516-1.154,1.154-1.154S-6.38,27.055-6.38,27.692z"/>
	<path fill="#FFFFFF" stroke="#FFFFFF" stroke-width="1.5" stroke-linecap="round" stroke-linejoin="round" d="M6.158,5.192
		c-0.957,1.655-2.178,2.739-2.73,2.42C2.876,7.295,3.204,5.694,4.159,4.039c0.957-1.655,2.178-2.739,2.73-2.42
		C7.441,1.936,7.114,3.537,6.158,5.192z"/>
	<path fill="#FFFFFF" d="M28.351-7.154l-1.039,3.347l1.154,0.346c7.27,2.308,13.039,5.747,18.231,15.577
		c5.192,9.831,7.5,23.794,6.346,46.73L52.929,60h5.192l0.114-1.154c1.154-23.216-2.03-38.884-7.5-49.245
		C45.267-0.762,37.374-5.723,29.529-6.923L28.351-7.154z"/>
</g>
</svg>
