<?xml version="1.0" encoding="utf-8"?>
<!-- Generator: Adobe Illustrator 16.0.0, SVG Export Plug-In . SVG Version: 6.00 Build 0)  -->
<!DOCTYPE svg PUBLIC "-//W3C//DTD SVG 1.1//EN" "http://www.w3.org/Graphics/SVG/1.1/DTD/svg11.dtd">
<svg version="1.1" id="Layer_1" xmlns="http://www.w3.org/2000/svg" xmlns:xlink="http://www.w3.org/1999/xlink" x="0px" y="0px"
	 width="800px" height="800px" viewBox="0 0 800 800" enable-background="new 0 0 800 800" xml:space="preserve">
<g>
	<linearGradient id="SVGID_1_" gradientUnits="userSpaceOnUse" x1="100" y1="100" x2="3.280640e-004" y2="3.280640e-004">
		<stop  offset="0.4624" style="stop-color:#FFFFFF"/>
		<stop  offset="1" style="stop-color:#CCCCCC"/>
	</linearGradient>
	<rect fill="url(#SVGID_1_)" width="100" height="100"/>
	<linearGradient id="SVGID_2_" gradientUnits="userSpaceOnUse" x1="299.9995" y1="99.9995" x2="200.0005" y2="5.264282e-004">
		<stop  offset="0.4624" style="stop-color:#FFFFFF"/>
		<stop  offset="1" style="stop-color:#CCCCCC"/>
	</linearGradient>
	<rect x="200" fill="url(#SVGID_2_)" width="100" height="100"/>
	<linearGradient id="SVGID_3_" gradientUnits="userSpaceOnUse" x1="500" y1="100" x2="400.0003" y2="3.280640e-004">
		<stop  offset="0.4624" style="stop-color:#FFFFFF"/>
		<stop  offset="1" style="stop-color:#CCCCCC"/>
	</linearGradient>
	<rect x="400" fill="url(#SVGID_3_)" width="100" height="100"/>
	<linearGradient id="SVGID_4_" gradientUnits="userSpaceOnUse" x1="700.001" y1="100.0005" x2="600.0006" y2="1.220703e-004">
		<stop  offset="0.4624" style="stop-color:#FFFFFF"/>
		<stop  offset="1" style="stop-color:#CCCCCC"/>
	</linearGradient>
	<rect x="600" fill="url(#SVGID_4_)" width="100" height="100"/>
	<linearGradient id="SVGID_5_" gradientUnits="userSpaceOnUse" x1="800.001" y1="200.001" x2="700.0006" y2="100.0006">
		<stop  offset="0.4624" style="stop-color:#FFFFFF"/>
		<stop  offset="1" style="stop-color:#CCCCCC"/>
	</linearGradient>
	<rect x="700" y="100" fill="url(#SVGID_5_)" width="100" height="100"/>
	<linearGradient id="SVGID_6_" gradientUnits="userSpaceOnUse" x1="600.001" y1="200.0005" x2="500.0006" y2="100.0001">
		<stop  offset="0.4624" style="stop-color:#FFFFFF"/>
		<stop  offset="1" style="stop-color:#CCCCCC"/>
	</linearGradient>
	<rect x="500" y="100" fill="url(#SVGID_6_)" width="100" height="100"/>
	<linearGradient id="SVGID_7_" gradientUnits="userSpaceOnUse" x1="400" y1="200" x2="299.9996" y2="99.9996">
		<stop  offset="0.4624" style="stop-color:#FFFFFF"/>
		<stop  offset="1" style="stop-color:#CCCCCC"/>
	</linearGradient>
	<rect x="300" y="100" fill="url(#SVGID_7_)" width="100" height="100"/>
	<linearGradient id="SVGID_8_" gradientUnits="userSpaceOnUse" x1="200.0005" y1="200.0005" x2="100.0001" y2="100.0001">
		<stop  offset="0.4624" style="stop-color:#FFFFFF"/>
		<stop  offset="1" style="stop-color:#CCCCCC"/>
	</linearGradient>
	<rect x="100" y="100" fill="url(#SVGID_8_)" width="100" height="100"/>
	<linearGradient id="SVGID_9_" gradientUnits="userSpaceOnUse" x1="99.9995" y1="299.9995" x2="5.264282e-004" y2="200.0005">
		<stop  offset="0.4624" style="stop-color:#FFFFFF"/>
		<stop  offset="1" style="stop-color:#CCCCCC"/>
	</linearGradient>
	<rect y="200" fill="url(#SVGID_9_)" width="100" height="100"/>
	<linearGradient id="SVGID_10_" gradientUnits="userSpaceOnUse" x1="300" y1="300" x2="200.0003" y2="200.0003">
		<stop  offset="0.4624" style="stop-color:#FFFFFF"/>
		<stop  offset="1" style="stop-color:#CCCCCC"/>
	</linearGradient>
	<rect x="200" y="200" fill="url(#SVGID_10_)" width="100" height="100"/>
	<linearGradient id="SVGID_11_" gradientUnits="userSpaceOnUse" x1="500.001" y1="300.0005" x2="400.0006" y2="200.0001">
		<stop  offset="0.4624" style="stop-color:#FFFFFF"/>
		<stop  offset="1" style="stop-color:#CCCCCC"/>
	</linearGradient>
	<rect x="400" y="200" fill="url(#SVGID_11_)" width="100" height="100"/>
	<linearGradient id="SVGID_12_" gradientUnits="userSpaceOnUse" x1="700" y1="300" x2="600.0003" y2="200.0003">
		<stop  offset="0.4624" style="stop-color:#FFFFFF"/>
		<stop  offset="1" style="stop-color:#CCCCCC"/>
	</linearGradient>
	<rect x="600" y="200" fill="url(#SVGID_12_)" width="100" height="100"/>
	<linearGradient id="SVGID_13_" gradientUnits="userSpaceOnUse" x1="800.001" y1="400.001" x2="700.0006" y2="300.0006">
		<stop  offset="0.4624" style="stop-color:#FFFFFF"/>
		<stop  offset="1" style="stop-color:#CCCCCC"/>
	</linearGradient>
	<rect x="700" y="300" fill="url(#SVGID_13_)" width="100" height="100"/>
	<linearGradient id="SVGID_14_" gradientUnits="userSpaceOnUse" x1="600.001" y1="400.001" x2="500.0006" y2="300.0006">
		<stop  offset="0.4624" style="stop-color:#FFFFFF"/>
		<stop  offset="1" style="stop-color:#CCCCCC"/>
	</linearGradient>
	<rect x="500" y="300" fill="url(#SVGID_14_)" width="100" height="100"/>
	<linearGradient id="SVGID_15_" gradientUnits="userSpaceOnUse" x1="400.0005" y1="400.0005" x2="300.0001" y2="300.0001">
		<stop  offset="0.4624" style="stop-color:#FFFFFF"/>
		<stop  offset="1" style="stop-color:#CCCCCC"/>
	</linearGradient>
	<rect x="300" y="300" fill="url(#SVGID_15_)" width="100" height="100"/>
	<linearGradient id="SVGID_16_" gradientUnits="userSpaceOnUse" x1="200" y1="400" x2="99.9996" y2="299.9996">
		<stop  offset="0.4624" style="stop-color:#FFFFFF"/>
		<stop  offset="1" style="stop-color:#CCCCCC"/>
	</linearGradient>
	<rect x="100" y="300" fill="url(#SVGID_16_)" width="100" height="100"/>
	<linearGradient id="SVGID_17_" gradientUnits="userSpaceOnUse" x1="100" y1="500" x2="3.280640e-004" y2="400.0003">
		<stop  offset="0.4624" style="stop-color:#FFFFFF"/>
		<stop  offset="1" style="stop-color:#CCCCCC"/>
	</linearGradient>
	<rect y="400" fill="url(#SVGID_17_)" width="100" height="100"/>
	<linearGradient id="SVGID_18_" gradientUnits="userSpaceOnUse" x1="300.0005" y1="500.001" x2="200.0001" y2="400.0006">
		<stop  offset="0.4624" style="stop-color:#FFFFFF"/>
		<stop  offset="1" style="stop-color:#CCCCCC"/>
	</linearGradient>
	<rect x="200" y="400" fill="url(#SVGID_18_)" width="100" height="100"/>
	<linearGradient id="SVGID_19_" gradientUnits="userSpaceOnUse" x1="500" y1="500" x2="400.0003" y2="400.0003">
		<stop  offset="0.4624" style="stop-color:#FFFFFF"/>
		<stop  offset="1" style="stop-color:#CCCCCC"/>
	</linearGradient>
	<rect x="400" y="400" fill="url(#SVGID_19_)" width="100" height="100"/>
	<linearGradient id="SVGID_20_" gradientUnits="userSpaceOnUse" x1="700" y1="500" x2="600.001" y2="400.001">
		<stop  offset="0.4624" style="stop-color:#FFFFFF"/>
		<stop  offset="1" style="stop-color:#CCCCCC"/>
	</linearGradient>
	<rect x="600" y="400" fill="url(#SVGID_20_)" width="100" height="100"/>
	<linearGradient id="SVGID_21_" gradientUnits="userSpaceOnUse" x1="800" y1="600" x2="699.9996" y2="499.9996">
		<stop  offset="0.4624" style="stop-color:#FFFFFF"/>
		<stop  offset="1" style="stop-color:#CCCCCC"/>
	</linearGradient>
	<rect x="700" y="500" fill="url(#SVGID_21_)" width="100" height="100"/>
	<linearGradient id="SVGID_22_" gradientUnits="userSpaceOnUse" x1="600.001" y1="600.001" x2="500.0006" y2="500.0006">
		<stop  offset="0.4624" style="stop-color:#FFFFFF"/>
		<stop  offset="1" style="stop-color:#CCCCCC"/>
	</linearGradient>
	<rect x="500" y="500" fill="url(#SVGID_22_)" width="100" height="100"/>
	<linearGradient id="SVGID_23_" gradientUnits="userSpaceOnUse" x1="400.001" y1="600.001" x2="300.0006" y2="500.0006">
		<stop  offset="0.4624" style="stop-color:#FFFFFF"/>
		<stop  offset="1" style="stop-color:#CCCCCC"/>
	</linearGradient>
	<rect x="300" y="500" fill="url(#SVGID_23_)" width="100" height="100"/>
	<linearGradient id="SVGID_24_" gradientUnits="userSpaceOnUse" x1="200.0005" y1="600.001" x2="100.0001" y2="500.0006">
		<stop  offset="0.4624" style="stop-color:#FFFFFF"/>
		<stop  offset="1" style="stop-color:#CCCCCC"/>
	</linearGradient>
	<rect x="100" y="500" fill="url(#SVGID_24_)" width="100" height="100"/>
	<linearGradient id="SVGID_25_" gradientUnits="userSpaceOnUse" x1="100.0005" y1="700.001" x2="1.220703e-004" y2="600.0006">
		<stop  offset="0.4624" style="stop-color:#FFFFFF"/>
		<stop  offset="1" style="stop-color:#CCCCCC"/>
	</linearGradient>
	<rect y="600" fill="url(#SVGID_25_)" width="100" height="100"/>
	<linearGradient id="SVGID_26_" gradientUnits="userSpaceOnUse" x1="300" y1="700" x2="200.0003" y2="600.0003">
		<stop  offset="0.4624" style="stop-color:#FFFFFF"/>
		<stop  offset="1" style="stop-color:#CCCCCC"/>
	</linearGradient>
	<rect x="200" y="600" fill="url(#SVGID_26_)" width="100" height="100"/>
	<linearGradient id="SVGID_27_" gradientUnits="userSpaceOnUse" x1="500" y1="700" x2="400.001" y2="600.001">
		<stop  offset="0.4624" style="stop-color:#FFFFFF"/>
		<stop  offset="1" style="stop-color:#CCCCCC"/>
	</linearGradient>
	<rect x="400" y="600" fill="url(#SVGID_27_)" width="100" height="100"/>
	<linearGradient id="SVGID_28_" gradientUnits="userSpaceOnUse" x1="700" y1="700" x2="600.0003" y2="600.0003">
		<stop  offset="0.4624" style="stop-color:#FFFFFF"/>
		<stop  offset="1" style="stop-color:#CCCCCC"/>
	</linearGradient>
	<rect x="600" y="600" fill="url(#SVGID_28_)" width="100" height="100"/>
	<linearGradient id="SVGID_29_" gradientUnits="userSpaceOnUse" x1="800.001" y1="800.001" x2="700.0006" y2="700.0006">
		<stop  offset="0.4624" style="stop-color:#FFFFFF"/>
		<stop  offset="1" style="stop-color:#CCCCCC"/>
	</linearGradient>
	<rect x="700" y="700" fill="url(#SVGID_29_)" width="100" height="100"/>
	<linearGradient id="SVGID_30_" gradientUnits="userSpaceOnUse" x1="600" y1="800" x2="499.9996" y2="699.9996">
		<stop  offset="0.4624" style="stop-color:#FFFFFF"/>
		<stop  offset="1" style="stop-color:#CCCCCC"/>
	</linearGradient>
	<rect x="500" y="700" fill="url(#SVGID_30_)" width="100" height="100"/>
	<linearGradient id="SVGID_31_" gradientUnits="userSpaceOnUse" x1="400.001" y1="800.001" x2="300.0006" y2="700.0006">
		<stop  offset="0.4624" style="stop-color:#FFFFFF"/>
		<stop  offset="1" style="stop-color:#CCCCCC"/>
	</linearGradient>
	<rect x="300" y="700" fill="url(#SVGID_31_)" width="100" height="100"/>
	<linearGradient id="SVGID_32_" gradientUnits="userSpaceOnUse" x1="200.001" y1="800.001" x2="100.0006" y2="700.0006">
		<stop  offset="0.4624" style="stop-color:#FFFFFF"/>
		<stop  offset="1" style="stop-color:#CCCCCC"/>
	</linearGradient>
	<rect x="100" y="700" fill="url(#SVGID_32_)" width="100" height="100"/>
</g>
<g>
	<linearGradient id="SVGID_33_" gradientUnits="userSpaceOnUse" x1="700.001" y1="100.0005" x2="800.001" y2="4.653931e-004">
		<stop  offset="0.129" style="stop-color:#8C8C8C"/>
		<stop  offset="1" style="stop-color:#000000"/>
	</linearGradient>
	<rect x="700" fill="url(#SVGID_33_)" width="100" height="100"/>
	<linearGradient id="SVGID_34_" gradientUnits="userSpaceOnUse" x1="500" y1="100" x2="600" y2="-2.288818e-005">
		<stop  offset="0.129" style="stop-color:#8C8C8C"/>
		<stop  offset="1" style="stop-color:#000000"/>
	</linearGradient>
	<rect x="500" fill="url(#SVGID_34_)" width="100" height="100"/>
	<linearGradient id="SVGID_35_" gradientUnits="userSpaceOnUse" x1="100.001" y1="100.001" x2="200.001" y2="9.536743e-004">
		<stop  offset="0.129" style="stop-color:#8C8C8C"/>
		<stop  offset="1" style="stop-color:#000000"/>
	</linearGradient>
	<rect x="100" fill="url(#SVGID_35_)" width="100" height="100"/>
	<linearGradient id="SVGID_36_" gradientUnits="userSpaceOnUse" x1="299.9995" y1="99.9995" x2="399.9995" y2="-5.111694e-004">
		<stop  offset="0.129" style="stop-color:#8C8C8C"/>
		<stop  offset="1" style="stop-color:#000000"/>
	</linearGradient>
	<rect x="300" fill="url(#SVGID_36_)" width="100" height="100"/>
	<linearGradient id="SVGID_37_" gradientUnits="userSpaceOnUse" x1="9.765625e-004" y1="200.001" x2="100.001" y2="100.001">
		<stop  offset="0.129" style="stop-color:#8C8C8C"/>
		<stop  offset="1" style="stop-color:#000000"/>
	</linearGradient>
	<rect y="100" fill="url(#SVGID_37_)" width="100" height="100"/>
	<linearGradient id="SVGID_38_" gradientUnits="userSpaceOnUse" x1="199.9995" y1="199.9995" x2="299.9995" y2="99.9995">
		<stop  offset="0.129" style="stop-color:#8C8C8C"/>
		<stop  offset="1" style="stop-color:#000000"/>
	</linearGradient>
	<rect x="200" y="100" fill="url(#SVGID_38_)" width="100" height="100"/>
	<linearGradient id="SVGID_39_" gradientUnits="userSpaceOnUse" x1="600.001" y1="200.0005" x2="700.001" y2="100.0005">
		<stop  offset="0.129" style="stop-color:#8C8C8C"/>
		<stop  offset="1" style="stop-color:#000000"/>
	</linearGradient>
	<rect x="600" y="100" fill="url(#SVGID_39_)" width="100" height="100"/>
	<linearGradient id="SVGID_40_" gradientUnits="userSpaceOnUse" x1="400" y1="200" x2="500" y2="100">
		<stop  offset="0.129" style="stop-color:#8C8C8C"/>
		<stop  offset="1" style="stop-color:#000000"/>
	</linearGradient>
	<rect x="400" y="100" fill="url(#SVGID_40_)" width="100" height="100"/>
	<linearGradient id="SVGID_41_" gradientUnits="userSpaceOnUse" x1="700.001" y1="300.001" x2="800.001" y2="200.0009">
		<stop  offset="0.129" style="stop-color:#8C8C8C"/>
		<stop  offset="1" style="stop-color:#000000"/>
	</linearGradient>
	<rect x="700" y="200" fill="url(#SVGID_41_)" width="100" height="100"/>
	<linearGradient id="SVGID_42_" gradientUnits="userSpaceOnUse" x1="500.001" y1="300.0005" x2="600.001" y2="200.0005">
		<stop  offset="0.129" style="stop-color:#8C8C8C"/>
		<stop  offset="1" style="stop-color:#000000"/>
	</linearGradient>
	<rect x="500" y="200" fill="url(#SVGID_42_)" width="100" height="100"/>
	<linearGradient id="SVGID_43_" gradientUnits="userSpaceOnUse" x1="99.9995" y1="299.9995" x2="199.9995" y2="199.9995">
		<stop  offset="0.129" style="stop-color:#8C8C8C"/>
		<stop  offset="1" style="stop-color:#000000"/>
	</linearGradient>
	<rect x="100" y="200" fill="url(#SVGID_43_)" width="100" height="100"/>
	<linearGradient id="SVGID_44_" gradientUnits="userSpaceOnUse" x1="300" y1="300" x2="400" y2="200">
		<stop  offset="0.129" style="stop-color:#8C8C8C"/>
		<stop  offset="1" style="stop-color:#000000"/>
	</linearGradient>
	<rect x="300" y="200" fill="url(#SVGID_44_)" width="100" height="100"/>
	<linearGradient id="SVGID_45_" gradientUnits="userSpaceOnUse" x1="-4.882813e-004" y1="399.9995" x2="99.9995" y2="299.9995">
		<stop  offset="0.129" style="stop-color:#8C8C8C"/>
		<stop  offset="1" style="stop-color:#000000"/>
	</linearGradient>
	<rect y="300" fill="url(#SVGID_45_)" width="100" height="100"/>
	<linearGradient id="SVGID_46_" gradientUnits="userSpaceOnUse" x1="200" y1="400" x2="300" y2="300">
		<stop  offset="0.129" style="stop-color:#8C8C8C"/>
		<stop  offset="1" style="stop-color:#000000"/>
	</linearGradient>
	<rect x="200" y="300" fill="url(#SVGID_46_)" width="100" height="100"/>
	<linearGradient id="SVGID_47_" gradientUnits="userSpaceOnUse" x1="600.001" y1="400.001" x2="700.001" y2="300.0009">
		<stop  offset="0.129" style="stop-color:#8C8C8C"/>
		<stop  offset="1" style="stop-color:#000000"/>
	</linearGradient>
	<rect x="600" y="300" fill="url(#SVGID_47_)" width="100" height="100"/>
	<linearGradient id="SVGID_48_" gradientUnits="userSpaceOnUse" x1="400.0005" y1="400.0005" x2="500.0005" y2="300.0005">
		<stop  offset="0.129" style="stop-color:#8C8C8C"/>
		<stop  offset="1" style="stop-color:#000000"/>
	</linearGradient>
	<rect x="400" y="300" fill="url(#SVGID_48_)" width="100" height="100"/>
	<linearGradient id="SVGID_49_" gradientUnits="userSpaceOnUse" x1="700" y1="500" x2="800" y2="400">
		<stop  offset="0.129" style="stop-color:#8C8C8C"/>
		<stop  offset="1" style="stop-color:#000000"/>
	</linearGradient>
	<rect x="700" y="400" fill="url(#SVGID_49_)" width="100" height="100"/>
	<linearGradient id="SVGID_50_" gradientUnits="userSpaceOnUse" x1="500.001" y1="500.001" x2="600.001" y2="400.0009">
		<stop  offset="0.129" style="stop-color:#8C8C8C"/>
		<stop  offset="1" style="stop-color:#000000"/>
	</linearGradient>
	<rect x="500" y="400" fill="url(#SVGID_50_)" width="100" height="100"/>
	<linearGradient id="SVGID_51_" gradientUnits="userSpaceOnUse" x1="100" y1="500" x2="200" y2="400">
		<stop  offset="0.129" style="stop-color:#8C8C8C"/>
		<stop  offset="1" style="stop-color:#000000"/>
	</linearGradient>
	<rect x="100" y="400" fill="url(#SVGID_51_)" width="100" height="100"/>
	<linearGradient id="SVGID_52_" gradientUnits="userSpaceOnUse" x1="300.0005" y1="500.001" x2="400.0005" y2="400.0009">
		<stop  offset="0.129" style="stop-color:#8C8C8C"/>
		<stop  offset="1" style="stop-color:#000000"/>
	</linearGradient>
	<rect x="300" y="400" fill="url(#SVGID_52_)" width="100" height="100"/>
	<linearGradient id="SVGID_53_" gradientUnits="userSpaceOnUse" x1="0" y1="600" x2="100" y2="500">
		<stop  offset="0.129" style="stop-color:#8C8C8C"/>
		<stop  offset="1" style="stop-color:#000000"/>
	</linearGradient>
	<rect y="500" fill="url(#SVGID_53_)" width="100" height="100"/>
	<linearGradient id="SVGID_54_" gradientUnits="userSpaceOnUse" x1="200.0005" y1="600.001" x2="300.0005" y2="500.0009">
		<stop  offset="0.129" style="stop-color:#8C8C8C"/>
		<stop  offset="1" style="stop-color:#000000"/>
	</linearGradient>
	<rect x="200" y="500" fill="url(#SVGID_54_)" width="100" height="100"/>
	<linearGradient id="SVGID_55_" gradientUnits="userSpaceOnUse" x1="600" y1="600" x2="700" y2="500">
		<stop  offset="0.129" style="stop-color:#8C8C8C"/>
		<stop  offset="1" style="stop-color:#000000"/>
	</linearGradient>
	<rect x="600" y="500" fill="url(#SVGID_55_)" width="100" height="100"/>
	<linearGradient id="SVGID_56_" gradientUnits="userSpaceOnUse" x1="400.001" y1="600.001" x2="500.001" y2="500.0009">
		<stop  offset="0.129" style="stop-color:#8C8C8C"/>
		<stop  offset="1" style="stop-color:#000000"/>
	</linearGradient>
	<rect x="400" y="500" fill="url(#SVGID_56_)" width="100" height="100"/>
	<linearGradient id="SVGID_57_" gradientUnits="userSpaceOnUse" x1="700" y1="700" x2="800" y2="600">
		<stop  offset="0.129" style="stop-color:#8C8C8C"/>
		<stop  offset="1" style="stop-color:#000000"/>
	</linearGradient>
	<rect x="700" y="600" fill="url(#SVGID_57_)" width="100" height="100"/>
	<linearGradient id="SVGID_58_" gradientUnits="userSpaceOnUse" x1="500" y1="700" x2="600" y2="600">
		<stop  offset="0.129" style="stop-color:#8C8C8C"/>
		<stop  offset="1" style="stop-color:#000000"/>
	</linearGradient>
	<rect x="500" y="600" fill="url(#SVGID_58_)" width="100" height="100"/>
	<linearGradient id="SVGID_59_" gradientUnits="userSpaceOnUse" x1="100.0005" y1="700.001" x2="200.0005" y2="600.001">
		<stop  offset="0.129" style="stop-color:#8C8C8C"/>
		<stop  offset="1" style="stop-color:#000000"/>
	</linearGradient>
	<rect x="100" y="600" fill="url(#SVGID_59_)" width="100" height="100"/>
	<linearGradient id="SVGID_60_" gradientUnits="userSpaceOnUse" x1="300.001" y1="700.001" x2="400.001" y2="600.001">
		<stop  offset="0.129" style="stop-color:#8C8C8C"/>
		<stop  offset="1" style="stop-color:#000000"/>
	</linearGradient>
	<rect x="300" y="600" fill="url(#SVGID_60_)" width="100" height="100"/>
	<linearGradient id="SVGID_61_" gradientUnits="userSpaceOnUse" x1="4.882813e-004" y1="800.001" x2="100.0005" y2="700.001">
		<stop  offset="0.129" style="stop-color:#8C8C8C"/>
		<stop  offset="1" style="stop-color:#000000"/>
	</linearGradient>
	<rect y="700" fill="url(#SVGID_61_)" width="100" height="100"/>
	<linearGradient id="SVGID_62_" gradientUnits="userSpaceOnUse" x1="200.001" y1="800.001" x2="300.001" y2="700.001">
		<stop  offset="0.129" style="stop-color:#8C8C8C"/>
		<stop  offset="1" style="stop-color:#000000"/>
	</linearGradient>
	<rect x="200" y="700" fill="url(#SVGID_62_)" width="100" height="100"/>
	<linearGradient id="SVGID_63_" gradientUnits="userSpaceOnUse" x1="600" y1="800" x2="700" y2="700">
		<stop  offset="0.129" style="stop-color:#8C8C8C"/>
		<stop  offset="1" style="stop-color:#000000"/>
	</linearGradient>
	<rect x="600" y="700" fill="url(#SVGID_63_)" width="100" height="100"/>
	<linearGradient id="SVGID_64_" gradientUnits="userSpaceOnUse" x1="400" y1="800" x2="500" y2="700">
		<stop  offset="0.129" style="stop-color:#8C8C8C"/>
		<stop  offset="1" style="stop-color:#000000"/>
	</linearGradient>
	<rect x="400" y="700" fill="url(#SVGID_64_)" width="100" height="100"/>
</g>
<rect x="2" y="2" fill="none" stroke="#000000" stroke-width="4" stroke-miterlimit="10" width="796" height="796"/>
</svg>
