<?xml version="1.0" encoding="utf-8"?>
<!-- Generator: Adobe Illustrator 16.0.0, SVG Export Plug-In . SVG Version: 6.00 Build 0)  -->
<!DOCTYPE svg PUBLIC "-//W3C//DTD SVG 1.1//EN" "http://www.w3.org/Graphics/SVG/1.1/DTD/svg11.dtd">
<svg version="1.1" id="Layer_1" xmlns="http://www.w3.org/2000/svg" xmlns:xlink="http://www.w3.org/1999/xlink" x="0px" y="0px"
	 width="800px" height="800px" viewBox="4.95 4.95 800 800" enable-background="new 4.95 4.95 800 800" xml:space="preserve">
<g>
	<defs>
		<path id="SVGID_1_" d="M4.95,4.95h800v100h-800V4.95z M4.95,204.95h800v100h-800V204.95z M4.95,404.95h800v100h-800V404.95z
			 M4.95,604.95h800v100h-800V604.95z M104.95,4.95v800h100v-800H104.95z M304.95,4.95v800h100v-800H304.95z M504.95,4.95v800h100
			v-800H504.95z M704.95,4.95v800h100v-800H704.95z"/>
	</defs>
	<clipPath id="SVGID_2_">
		<use xlink:href="#SVGID_1_"  overflow="visible"/>
	</clipPath>
	<rect x="-45.05" y="-45.05" clip-path="url(#SVGID_2_)" width="900" height="900"/>
</g>
<rect x="-45.05" y="-45.05" fill="none" width="900" height="900"/>
</svg>
