<?xml version="1.0" encoding="utf-8"?>
<!-- Generator: Adobe Illustrator 16.0.0, SVG Export Plug-In . SVG Version: 6.00 Build 0)  -->
<!DOCTYPE svg PUBLIC "-//W3C//DTD SVG 1.1//EN" "http://www.w3.org/Graphics/SVG/1.1/DTD/svg11.dtd">
<svg version="1.1" id="Layer_1" xmlns="http://www.w3.org/2000/svg" xmlns:xlink="http://www.w3.org/1999/xlink" x="0px" y="0px"
	 width="100px" height="100px" viewBox="0 0 100 100" enable-background="new 0 0 100 100" xml:space="preserve">
<g>
	<g>
		<circle cx="14.837" cy="26.885" r="5.86"/>
		<circle cx="31.886" cy="20.492" r="5.861"/>
		<circle cx="50" cy="18.361" r="5.861"/>
		<circle cx="68.115" cy="20.492" r="5.861"/>
		<circle cx="85.163" cy="26.885" r="5.86"/>
	</g>
	<path stroke="#000000" stroke-width="1.5" stroke-linejoin="round" d="M21.229,56.72c18.115-3.196,44.753-3.196,57.54,0
		l5.328-26.639L68.115,54.59l-0.641-30.048L56.394,53.523L50,22.623l-6.394,30.901L32.524,24.541L31.886,54.59L15.901,30.082
		L21.229,56.72z"/>
	<path stroke="#000000" stroke-width="1.5" stroke-linejoin="round" d="M21.229,56.72c0,4.263,3.197,4.263,5.328,8.524
		c2.131,3.195,2.131,2.132,1.066,7.459c-3.197,2.132-3.197,5.328-3.197,5.328c-3.197,3.195,1.066,5.326,1.066,5.326
		c13.852,2.133,35.164,2.133,49.015,0c0,0,3.196-2.131,0-5.326c0,0,1.065-3.196-2.131-5.328c-1.066-5.327-1.066-4.264,1.064-7.459
		c2.132-4.264,5.328-4.264,5.328-8.524C60.656,53.523,39.345,53.523,21.229,56.72z"/>
	<path fill="none" stroke="#000000" stroke-width="1.5" stroke-linejoin="round" d="M25.493,83.359
		c15.872,5.521,33.144,5.521,49.015,0"/>
	<path fill="none" stroke="#FFFFFF" stroke-width="1.5" stroke-linecap="round" stroke-linejoin="round" d="M25.493,63.113
		c15.872-5.521,33.144-5.521,49.015,0"/>
	<path fill="none" stroke="#FFFFFF" stroke-width="1.5" stroke-linecap="round" stroke-linejoin="round" d="M28.688,68.441h42.622"
		/>
	<path fill="none" stroke="#FFFFFF" stroke-width="1.5" stroke-linecap="round" stroke-linejoin="round" d="M26.558,74.836
		c15.222,5.041,31.663,5.041,46.885,0"/>
	<path fill="none" stroke="#FFFFFF" stroke-width="1.5" stroke-linecap="round" stroke-linejoin="round" d="M24.427,81.229
		c16.516,6.027,34.631,6.027,51.146,0"/>
</g>
</svg>
