<?xml version="1.0" encoding="utf-8"?>
<!-- Generator: Adobe Illustrator 16.0.0, SVG Export Plug-In . SVG Version: 6.00 Build 0)  -->
<!DOCTYPE svg PUBLIC "-//W3C//DTD SVG 1.1//EN" "http://www.w3.org/Graphics/SVG/1.1/DTD/svg11.dtd">
<svg version="1.1" id="Layer_1" xmlns="http://www.w3.org/2000/svg" xmlns:xlink="http://www.w3.org/1999/xlink" x="0px" y="0px"
	 width="100px" height="100px" viewBox="-27.5 -27.5 100 100" enable-background="new -27.5 -27.5 100 100" xml:space="preserve">
<g>
	<path stroke="#000000" stroke-width="1.5" stroke-linejoin="round" d="M-11.25,60h67.5v-7.5h-67.5V60z"/>
	<path stroke="#000000" stroke-width="1.5" stroke-linejoin="round" d="M-2.5,42.5l3.75-6.25h42.5l3.75,6.25H-2.5z"/>
	<path stroke="#000000" stroke-width="1.5" stroke-linejoin="round" d="M-3.75,52.5v-10h52.5v10H-3.75z"/>
	<path stroke="#000000" stroke-width="1.5" d="M1.25,36.25V3.75h42.5v32.5H1.25z"/>
	<path stroke="#000000" stroke-width="1.5" stroke-linejoin="round" d="M1.25,3.75l-7.5-6.25h57.5l-7.5,6.25H1.25z"/>
	<path stroke="#000000" stroke-width="1.5" stroke-linejoin="round" d="M-6.25-2.5V-15h10v5h12.5v-5h12.5v5h12.5v-5h10v12.5H-6.25z"
		/>
	<path fill="none" stroke="#FFFFFF" stroke-linecap="round" d="M-3.75,51.25h52.5l0,0"/>
	<path fill="none" stroke="#FFFFFF" stroke-linecap="round" d="M-1.25,41.25h47.5"/>
	<path fill="none" stroke="#FFFFFF" stroke-linecap="round" d="M1.25,36.25h42.5"/>
	<path fill="none" stroke="#FFFFFF" stroke-linecap="round" d="M1.25,3.75h42.5"/>
	<path fill="none" stroke="#FFFFFF" stroke-linecap="round" d="M-6.25-2.5h57.5"/>
</g>
</svg>
