<?xml version="1.0" encoding="utf-8"?>
<!-- Generator: Adobe Illustrator 16.0.0, SVG Export Plug-In . SVG Version: 6.00 Build 0)  -->
<!DOCTYPE svg PUBLIC "-//W3C//DTD SVG 1.1//EN" "http://www.w3.org/Graphics/SVG/1.1/DTD/svg11.dtd">
<svg version="1.1" id="Layer_1" xmlns="http://www.w3.org/2000/svg" xmlns:xlink="http://www.w3.org/1999/xlink" x="0px" y="0px"
	 width="100px" height="100px" viewBox="-27.5 -27.5 100 100" enable-background="new -27.5 -27.5 100 100" xml:space="preserve">
<g>
	<path fill="#FFFFFF" stroke="#000000" stroke-width="3" stroke-linecap="round" stroke-linejoin="round" d="M22.466-7.969
		C47.075-5.625,61.138,10.781,59.966,60H6.06c0-21.094,23.438-15.234,18.75-49.219"/>
	<path fill="#FFFFFF" stroke="#000000" stroke-width="3" stroke-linecap="round" stroke-linejoin="round" d="M27.153,10.781
		c0.891,6.821-13.007,17.273-18.75,21.094C1.372,36.563,1.795,42.047-3.315,41.25c-2.441-2.202,3.306-7.125,0-7.031
		c-2.344,0,0.445,2.884-2.344,4.688c-2.344,0-9.382,2.344-9.375-9.375c0-4.688,14.063-28.125,14.063-28.125s4.431-4.453,4.688-8.203
		c-1.711-2.33-1.172-4.688-1.172-7.031c2.344-2.344,7.031,5.859,7.031,5.859h4.688c0,0,1.828-4.669,5.859-7.031
		c2.344,0,2.344,7.031,2.344,7.031"/>
	<path stroke="#000000" stroke-width="3" stroke-linecap="round" stroke-linejoin="round" d="M-6.831,28.359
		c0,0.647-0.523,1.172-1.172,1.172c-0.647,0-1.172-0.524-1.172-1.172s0.524-1.172,1.172-1.172
		C-7.354,27.188-6.831,27.712-6.831,28.359z"/>
	<path stroke="#000000" stroke-width="3" stroke-linecap="round" stroke-linejoin="round" d="M5.903,5.508
		C4.932,7.189,3.691,8.29,3.13,7.966c-0.561-0.323-0.228-1.949,0.743-3.63c0.972-1.681,2.212-2.782,2.772-2.458
		C7.207,2.201,6.874,3.827,5.903,5.508z"/>
</g>
</svg>
