<?xml version="1.0" encoding="utf-8"?>
<!-- Generator: Adobe Illustrator 16.0.0, SVG Export Plug-In . SVG Version: 6.00 Build 0)  -->
<!DOCTYPE svg PUBLIC "-//W3C//DTD SVG 1.1//EN" "http://www.w3.org/Graphics/SVG/1.1/DTD/svg11.dtd">
<svg version="1.1" id="Layer_1" xmlns="http://www.w3.org/2000/svg" xmlns:xlink="http://www.w3.org/1999/xlink" x="0px" y="0px"
	 width="100px" height="100px" viewBox="-27.5 -27.5 100 100" enable-background="new -27.5 -27.5 100 100" xml:space="preserve">
<g>
	<path id="path6570" fill="none" stroke="#000000" stroke-width="1.5" stroke-linecap="round" d="M22.568-2.443V-15"/>
	<path stroke="#000000" stroke-width="1.5" d="M22.568,27.379c0,0,10.037-16.729,6.691-23.42c0,0-2.23-5.576-6.691-5.576
		c-4.461,0-6.691,5.576-6.691,5.576C12.531,10.65,22.568,27.379,22.568,27.379"/>
	<path stroke="#000000" stroke-width="1.5" stroke-linecap="round" stroke-linejoin="round" d="M-1.968,54.145
		c12.268,7.808,34.572,7.808,46.84,0V38.531c0,0,20.075-10.037,13.384-23.42c-8.922-14.498-30.112-7.807-35.688,8.922v7.807v-7.807
		C14.761,7.305-6.429,0.613-13.12,15.111C-19.812,28.494-1.968,37.416-1.968,37.416V54.145z"/>
	<path fill="none" stroke="#000000" stroke-width="1.5" stroke-linecap="round" d="M16.992-10.539h11.152"/>
	<path fill="none" stroke="#FFFFFF" stroke-width="1.5" stroke-linecap="round" stroke-linejoin="round" d="M43.757,37.416
		c0,0,18.96-8.922,13.449-21.523c-8.652-13.049-29.063-4.127-34.638,10.371l0.021,4.684l-0.021-4.684
		c-5.576-14.498-28.09-23.42-34.579-10.371c-5.57,12.602,10.825,20.073,10.825,20.073"/>
	<path fill="none" stroke="#FFFFFF" stroke-width="1.5" stroke-linecap="round" stroke-linejoin="round" d="M-1.968,38.531
		c12.268-6.691,34.572-6.691,46.84,0 M-1.968,46.338c12.268-6.691,34.572-6.691,46.84,0 M-1.968,54.145
		c12.268-6.691,34.572-6.691,46.84,0"/>
</g>
</svg>
