<?xml version="1.0" encoding="utf-8"?>
<!-- Generator: Adobe Illustrator 16.0.0, SVG Export Plug-In . SVG Version: 6.00 Build 0)  -->
<!DOCTYPE svg PUBLIC "-//W3C//DTD SVG 1.1//EN" "http://www.w3.org/Graphics/SVG/1.1/DTD/svg11.dtd">
<svg version="1.1" id="Layer_1" xmlns="http://www.w3.org/2000/svg" xmlns:xlink="http://www.w3.org/1999/xlink" x="0px" y="0px"
	 width="100px" height="100px" viewBox="-27.5 -27.5 100 100" enable-background="new -27.5 -27.5 100 100" xml:space="preserve">
<path fill="#FFFFFF" stroke="#000000" stroke-width="3" stroke-linecap="round" d="M22-13.25c-5.435,0-9.836,4.402-9.836,9.836
	c0,2.189,0.713,4.205,1.917,5.853c-4.794,2.754-8.065,7.893-8.065,13.82c0,4.992,2.311,9.442,5.926,12.37
	C4.566,31.233-6.279,42.274-6.279,61.75h56.557c0-19.476-10.845-30.517-18.222-33.122c3.617-2.928,5.927-7.377,5.927-12.37
	c0-5.927-3.271-11.066-8.063-13.82c1.203-1.647,1.916-3.664,1.916-5.853C31.836-8.848,27.435-13.25,22-13.25z"/>
</svg>
